<svg width="289" height="30" viewBox="0 0 289 30" fill="none" xmlns="http://www.w3.org/2000/svg">
<path fill-rule="evenodd" clip-rule="evenodd" d="M26.6668 8.09197C26.1643 7.62468 25.9122 7.04365 25.9122 6.34887C25.9122 5.65409 26.1627 5.07306 26.6668 4.60577C27.1694 4.13849 27.7926 3.90485 28.5348 3.90485C29.2771 3.90485 29.9002 4.12773 30.4028 4.57349C30.9054 5.01926 31.1574 5.57877 31.1574 6.25049C31.1574 6.96833 30.9115 7.57088 30.4198 8.05969C29.9281 8.54849 29.3003 8.79289 28.5348 8.79289C27.7926 8.79289 27.1709 8.55925 26.6668 8.09197ZM26.4705 11.6596H30.5667V29.0598H26.4705V11.6596Z" fill="#00AFF0"/>
<path fill-rule="evenodd" clip-rule="evenodd" d="M37.9272 28.6356C36.2773 28.136 34.9722 27.4735 34.0104 26.6481L35.4856 23.3571C36.4242 24.0964 37.5778 24.699 38.9432 25.1663C40.3086 25.6336 41.6802 25.8672 43.0564 25.8672C44.7605 25.8672 46.0331 25.5967 46.8744 25.0525C47.7156 24.5099 48.1362 23.7936 48.1362 22.9021C48.1362 22.2504 47.9011 21.7124 47.431 21.2897C46.9609 20.8654 46.3656 20.5349 45.645 20.2951C44.9244 20.0569 43.941 19.7848 42.6946 19.482C40.9457 19.0685 39.5308 18.6566 38.4499 18.2431C37.369 17.8311 36.4397 17.184 35.6634 16.3048C34.8871 15.4255 34.5006 14.2358 34.5006 12.7371C34.5006 11.4782 34.8439 10.3315 35.5335 9.30011C36.2216 8.2687 37.2592 7.44941 38.6478 6.84071C40.0349 6.23355 41.7343 5.9292 43.7446 5.9292C45.1425 5.9292 46.5187 6.10289 47.8748 6.45028C49.2294 6.79767 50.3985 7.29724 51.3819 7.94898L50.0382 11.24C49.033 10.6528 47.9831 10.2085 46.8914 9.90419C45.7981 9.59984 44.7389 9.44767 43.7105 9.44767C42.0281 9.44767 40.7771 9.7305 39.9576 10.2946C39.1396 10.8603 38.7283 11.6104 38.7283 12.5434C38.7283 13.1952 38.9633 13.727 39.4334 14.1405C39.9035 14.554 40.4988 14.8799 41.2194 15.1181C41.9415 15.3579 42.9235 15.6284 44.1698 15.9328C45.8739 16.3232 47.2733 16.7321 48.365 17.1548C49.4583 17.579 50.3923 18.2246 51.1685 19.0931C51.9448 19.9616 52.3314 21.1359 52.3314 22.6116C52.3314 23.872 51.9881 25.0126 51.2984 26.0332C50.6103 27.0539 49.5665 27.8685 48.1686 28.4772C46.7692 29.0859 45.0651 29.3887 43.0549 29.3887C41.2874 29.3857 39.5772 29.1351 37.9272 28.6356Z" fill="#00AFF0"/>
<path fill-rule="evenodd" clip-rule="evenodd" d="M59.3162 28.1483C57.8735 27.3875 56.7477 26.3284 55.9405 24.9711C55.1318 23.6138 54.7282 22.0767 54.7282 20.3597C54.7282 18.6443 55.1318 17.1133 55.9405 15.7653C56.7477 14.4188 57.8688 13.3643 59.2992 12.6034C60.7311 11.8426 62.364 11.4629 64.1995 11.4629C65.9252 11.4629 67.4391 11.8103 68.7396 12.5051C70.04 13.2014 71.0173 14.199 71.673 15.5024L68.5262 17.327C68.0236 16.5231 67.3958 15.9205 66.6412 15.5178C65.8866 15.1166 65.0624 14.9153 64.1671 14.9153C62.6377 14.9153 61.3697 15.4102 60.3646 16.3986C59.3595 17.387 58.8569 18.7073 58.8569 20.3582C58.8569 22.0091 59.3533 23.3295 60.3476 24.3178C61.3419 25.3062 62.6145 25.8012 64.1671 25.8012C65.0624 25.8012 65.8881 25.6013 66.6412 25.1986C67.3958 24.7974 68.0236 24.1949 68.5262 23.391L71.673 25.2155C70.9957 26.519 70.006 27.5243 68.7071 28.2298C67.4066 28.9353 65.9036 29.2889 64.1995 29.2889C62.3857 29.2873 60.7574 28.9077 59.3162 28.1483Z" fill="#00AFF0"/>
<path fill-rule="evenodd" clip-rule="evenodd" d="M90.2909 13.3873C91.6238 14.6693 92.2903 16.5707 92.2903 19.0885V29.0598H88.194V19.6096C88.194 18.0894 87.8337 16.9442 87.1116 16.1726C86.391 15.401 85.3642 15.0167 84.0297 15.0167C82.5221 15.0167 81.3314 15.4671 80.4577 16.3694C79.584 17.2701 79.1464 18.569 79.1464 20.2629V29.0614H75.0502V4.88245H79.1464V13.6794C79.8237 12.9616 80.6603 12.4143 81.6546 12.0347C82.6489 11.655 83.7576 11.4644 84.9808 11.4644C87.1874 11.4644 88.9579 12.1054 90.2909 13.3873Z" fill="#00AFF0"/>
<path fill-rule="evenodd" clip-rule="evenodd" d="M100.747 28.1483C99.3261 27.3875 98.2174 26.3284 97.4195 24.9711C96.6216 23.6138 96.2242 22.0767 96.2242 20.3597C96.2242 18.6443 96.6216 17.1133 97.4195 15.7653C98.2174 14.4172 99.3261 13.3643 100.747 12.6034C102.167 11.8426 103.763 11.4629 105.533 11.4629C107.325 11.4629 108.93 11.8426 110.353 12.6034C111.773 13.3643 112.881 14.4172 113.679 15.7653C114.477 17.1118 114.876 18.6443 114.876 20.3597C114.876 22.0752 114.477 23.6123 113.679 24.9711C112.881 26.3284 111.773 27.3875 110.353 28.1483C108.932 28.9092 107.325 29.2889 105.533 29.2889C103.763 29.2873 102.167 28.9077 100.747 28.1483ZM109.271 24.3025C110.254 23.3033 110.746 21.9891 110.746 20.3597C110.746 18.7304 110.254 17.4162 109.271 16.417C108.287 15.4194 107.042 14.9183 105.533 14.9183C104.025 14.9183 102.785 15.4194 101.813 16.417C100.84 17.4162 100.354 18.7304 100.354 20.3597C100.354 21.9891 100.84 23.3033 101.813 24.3025C102.784 25.3016 104.025 25.8012 105.533 25.8012C107.041 25.8012 108.287 25.3016 109.271 24.3025Z" fill="#00AFF0"/>
<path fill-rule="evenodd" clip-rule="evenodd" d="M121.89 28.1483C120.469 27.3875 119.36 26.3284 118.563 24.9711C117.765 23.6138 117.367 22.0767 117.367 20.3597C117.367 18.6443 117.765 17.1133 118.563 15.7653C119.36 14.4172 120.469 13.3643 121.89 12.6034C123.31 11.8426 124.906 11.4629 126.676 11.4629C128.468 11.4629 130.073 11.8426 131.496 12.6034C132.916 13.3643 134.024 14.4172 134.822 15.7653C135.62 17.1118 136.019 18.6443 136.019 20.3597C136.019 22.0752 135.62 23.6123 134.822 24.9711C134.024 26.3284 132.916 27.3875 131.496 28.1483C130.075 28.9092 128.468 29.2889 126.676 29.2889C124.906 29.2873 123.31 28.9077 121.89 28.1483ZM130.412 24.3025C131.396 23.3033 131.887 21.9891 131.887 20.3597C131.887 18.7304 131.396 17.4162 130.412 16.417C129.429 15.4194 128.184 14.9183 126.675 14.9183C125.167 14.9183 123.927 15.4194 122.954 16.417C121.982 17.4162 121.496 18.7304 121.496 20.3597C121.496 21.9891 121.982 23.3033 122.954 24.3025C123.925 25.3016 125.167 25.8012 126.675 25.8012C128.184 25.8012 129.429 25.3016 130.412 24.3025Z" fill="#00AFF0"/>
<path fill-rule="evenodd" clip-rule="evenodd" d="M139.95 4.88245H144.046V29.0598H139.95V4.88245Z" fill="#00AFF0"/>
<path fill-rule="evenodd" clip-rule="evenodd" d="M154.159 27.8701C152.291 26.8602 150.827 25.4645 149.766 23.683C148.707 21.9015 148.176 19.8925 148.176 17.6544C148.176 15.4179 148.711 13.4073 149.783 11.6258C150.853 9.84583 152.322 8.44859 154.192 7.4387C156.06 6.42881 158.153 5.9231 160.47 5.9231C162.349 5.9231 164.064 6.24897 165.616 6.9007C167.169 7.55244 168.478 8.49777 169.55 9.73516L166.796 12.3098C165.135 10.5283 163.092 9.63832 160.666 9.63832C159.092 9.63832 157.683 9.97956 156.439 10.6651C155.194 11.3491 154.22 12.2991 153.521 13.5165C152.822 14.7339 152.472 16.1127 152.472 17.6544C152.472 19.1977 152.822 20.5765 153.521 21.7923C154.22 23.0097 155.192 23.9597 156.439 24.6437C157.685 25.3277 159.094 25.669 160.666 25.669C163.092 25.669 165.135 24.7682 166.796 22.9652L169.55 25.5721C168.478 26.811 167.161 27.7548 165.599 28.4066C164.036 29.0583 162.316 29.3842 160.436 29.3842C158.119 29.3857 156.027 28.88 154.159 27.8701Z" fill="#00AFF0"/>
<path fill-rule="evenodd" clip-rule="evenodd" d="M175.678 28.1483C174.257 27.3875 173.148 26.3284 172.35 24.9711C171.552 23.6138 171.155 22.0767 171.155 20.3597C171.155 18.6443 171.552 17.1133 172.35 15.7653C173.148 14.4172 174.257 13.3643 175.678 12.6034C177.098 11.8426 178.693 11.4629 180.464 11.4629C182.256 11.4629 183.861 11.8426 185.284 12.6034C186.703 13.3643 187.812 14.4172 188.61 15.7653C189.408 17.1118 189.807 18.6443 189.807 20.3597C189.807 22.0752 189.408 23.6123 188.61 24.9711C187.812 26.3284 186.703 27.3875 185.284 28.1483C183.863 28.9092 182.256 29.2889 180.464 29.2889C178.693 29.2873 177.098 28.9077 175.678 28.1483ZM184.2 24.3025C185.183 23.3033 185.675 21.9891 185.675 20.3597C185.675 18.7304 185.183 17.4162 184.2 16.417C183.216 15.4194 181.972 14.9183 180.462 14.9183C178.955 14.9183 177.715 15.4194 176.742 16.417C175.769 17.4162 175.284 18.7304 175.284 20.3597C175.284 21.9891 175.769 23.3033 176.742 24.3025C177.713 25.3016 178.955 25.8012 180.462 25.8012C181.972 25.8012 183.218 25.3016 184.2 24.3025Z" fill="#00AFF0"/>
<path fill-rule="evenodd" clip-rule="evenodd" d="M208.982 13.3873C210.314 14.6693 210.981 16.5707 210.981 19.0885V29.0598H206.885V19.6096C206.885 18.0894 206.524 16.9442 205.802 16.1726C205.082 15.401 204.055 15.0167 202.72 15.0167C201.213 15.0167 200.022 15.4671 199.148 16.3694C198.275 17.2701 197.837 18.569 197.837 20.2629V29.0614H193.741V11.6612H197.642V13.91C198.32 13.1076 199.172 12.4974 200.198 12.0854C201.225 11.6735 202.383 11.4659 203.673 11.4659C205.878 11.4644 207.649 12.1054 208.982 13.3873Z" fill="#00AFF0"/>
<path fill-rule="evenodd" clip-rule="evenodd" d="M231.436 13.3873C232.769 14.6693 233.435 16.5707 233.435 19.0885V29.0598H229.339V19.6096C229.339 18.0894 228.979 16.9442 228.257 16.1726C227.536 15.401 226.509 15.0167 225.175 15.0167C223.667 15.0167 222.476 15.4671 221.603 16.3694C220.729 17.2701 220.291 18.569 220.291 20.2629V29.0614H216.195V11.6612H220.097V13.91C220.774 13.1076 221.626 12.4974 222.653 12.0854C223.679 11.6735 224.838 11.4659 226.127 11.4659C228.332 11.4644 230.101 12.1054 231.436 13.3873Z" fill="#00AFF0"/>
<path fill-rule="evenodd" clip-rule="evenodd" d="M255.198 21.6632H241.464C241.704 22.9452 242.333 23.9597 243.349 24.7098C244.365 25.4599 245.628 25.8334 247.136 25.8334C249.058 25.8334 250.643 25.2032 251.889 23.9428L254.085 26.4514C253.298 27.3859 252.304 28.0915 251.102 28.5695C249.901 29.0476 248.546 29.2874 247.038 29.2874C245.115 29.2874 243.422 28.9077 241.959 28.1468C240.494 27.3859 239.364 26.3269 238.566 24.9696C237.768 23.6123 237.371 22.0752 237.371 20.3582C237.371 18.6643 237.759 17.1379 238.534 15.7807C239.31 14.4234 240.386 13.3643 241.762 12.6034C243.139 11.8426 244.691 11.4629 246.417 11.4629C248.121 11.4629 249.646 11.8379 250.989 12.5865C252.333 13.3351 253.383 14.3896 254.136 15.7484C254.891 17.1057 255.267 18.6751 255.267 20.4566C255.265 20.741 255.242 21.1421 255.198 21.6632ZM243.088 15.879C242.18 16.6507 241.628 17.6775 241.433 18.9594H251.365C251.19 17.699 250.654 16.6783 249.758 15.8959C248.863 15.1136 247.748 14.7231 246.415 14.7231C245.104 14.7231 243.994 15.1089 243.088 15.879Z" fill="#00AFF0"/>
<path fill-rule="evenodd" clip-rule="evenodd" d="M262.346 28.1483C260.903 27.3875 259.777 26.3284 258.97 24.9711C258.161 23.6138 257.758 22.0767 257.758 20.3597C257.758 18.6443 258.161 17.1133 258.97 15.7653C259.777 14.4188 260.898 13.3643 262.329 12.6034C263.761 11.8426 265.393 11.4629 267.229 11.4629C268.955 11.4629 270.469 11.8103 271.769 12.5051C273.069 13.2014 274.047 14.199 274.702 15.5024L271.556 17.327C271.053 16.5231 270.425 15.9205 269.671 15.5178C268.916 15.1166 268.092 14.9153 267.196 14.9153C265.667 14.9153 264.399 15.4102 263.394 16.3986C262.389 17.387 261.886 18.7073 261.886 20.3582C261.886 22.0091 262.383 23.3295 263.377 24.3178C264.371 25.3062 265.644 25.8012 267.196 25.8012C268.092 25.8012 268.918 25.6013 269.671 25.1986C270.425 24.7974 271.053 24.1949 271.556 23.391L274.702 25.2155C274.025 26.519 273.035 27.5243 271.737 28.2298C270.436 28.9353 268.933 29.2889 267.229 29.2889C265.415 29.2873 263.787 28.9077 262.346 28.1483Z" fill="#00AFF0"/>
<path fill-rule="evenodd" clip-rule="evenodd" d="M288.994 28.1145C288.513 28.5049 287.928 28.7985 287.24 28.9937C286.552 29.1889 285.825 29.2873 285.06 29.2873C283.138 29.2873 281.652 28.7877 280.602 27.7886C279.553 26.7895 279.028 25.3338 279.028 23.4216V15.0474H276.144V11.7902H279.028V7.81525H283.125V11.7918H287.812V15.0489H283.125V23.3248C283.125 24.1718 283.333 24.8189 283.748 25.2631C284.163 25.7089 284.764 25.9318 285.552 25.9318C286.468 25.9318 287.234 25.6935 287.846 25.2139L288.994 28.1145Z" fill="#00AFF0"/>
<path d="M9.23783 5.90255C10.8775 5.90255 12.2068 4.58122 12.2068 2.95127C12.2068 1.32133 10.8775 0 9.23783 0C7.59811 0 6.26886 1.32133 6.26886 2.95127C6.26886 4.58122 7.59811 5.90255 9.23783 5.90255Z" fill="#00AFF0"/>
<path fill-rule="evenodd" clip-rule="evenodd" d="M10.311 6.92932H10.2862V22.3882C10.2862 22.94 9.83161 23.4011 9.27802 23.3904C8.7399 23.3796 8.30847 22.9431 8.30847 22.4066V6.92932H8.28063C6.85027 12.2985 3.93543 17.0666 0 20.7742C2.18961 22.7371 3.76688 25.364 4.41015 28.3353C4.4349 28.449 4.53541 28.5289 4.65138 28.5289H13.9433C14.0593 28.5289 14.1598 28.4475 14.1846 28.3353C14.8278 25.364 16.4051 22.7386 18.5947 20.7742C14.6562 17.0666 11.7413 12.2985 10.311 6.92932Z" fill="#00AFF0"/>
<path fill-rule="evenodd" clip-rule="evenodd" d="M4.6653 30H13.9248C13.9464 29.7756 13.9727 29.5512 14.0036 29.3298C14.0253 29.1807 13.9093 29.0485 13.7593 29.0485H4.83076C4.68077 29.0485 4.56479 29.1807 4.58644 29.3298C4.61737 29.5512 4.64365 29.7756 4.6653 30Z" fill="#00AFF0"/>
</svg>
